<?xml version="1.0" encoding="utf-8"?>
<!-- Designed by Vexels.com - 2016 All Rights Reserved - https://vexels.com/terms-and-conditions/  -->

<svg version="1.1" id="Layer_1" xmlns="http://www.w3.org/2000/svg" xmlns:xlink="http://www.w3.org/1999/xlink" x="0px" y="0px"
	 width="1200px" color="white" height="1200px" viewBox="0 0 1200 1200" enable-background="new 0 0 1200 1200" xml:space="preserve">
<g>
	<g id="vexels">
	</g>
	<g id="design">
		<g>
			<path fill="#002164" d="M1123.652,445.571v-17.993h26.339v-12.512H50v12.51h26.336v17.992H50v98.962h170.439
				c52.437,30.661,87.765,87.407,87.765,152.532v87.871h77.505v-87.871c0-65.127,35.331-121.874,87.771-152.532
				c52.446,30.661,87.766,87.407,87.766,152.532v87.871h77.514v-87.871c0-65.127,35.316-121.874,87.762-152.532
				c52.438,30.661,87.771,87.407,87.771,152.532v87.871h77.505v-87.871c0-65.127,35.331-121.874,87.765-152.532H1150v-98.959
				H1123.652z M137.01,445.571H92.154v-17.993h44.859v17.993H137.01z M197.691,445.571h-44.862v-17.993h44.862V445.571z
				 M258.369,445.571h-44.865v-17.993h44.862v17.993H258.369z M319.044,445.571h-44.862v-17.993h44.862V445.571z M379.719,445.571
				h-44.862v-17.993h44.862V445.571z M440.393,445.571h-44.862v-17.993h44.862V445.571z M501.071,445.571h-44.859v-17.993h44.859
				V445.571z M561.749,445.571h-44.862v-17.993h44.862V445.571z M622.424,445.571h-44.862v-17.993h44.862V445.571z M683.101,445.571
				h-44.862v-17.993h44.862V445.571z M743.779,445.571h-44.862v-17.993h44.862V445.571z M804.454,445.571h-44.859v-17.993h44.859
				V445.571z M865.132,445.571h-44.862v-17.993h44.862V445.571L865.132,445.571z M925.806,445.571h-44.859v-17.993h44.859V445.571z
				 M986.484,445.571h-44.862v-17.993h44.862V445.571z M1047.159,445.571h-44.856v-17.993h44.856V445.571z M1107.84,445.571h-44.862
				v-17.993h44.862V445.571z"/>
		</g>
	</g>
	<g id="background">
	</g>
</g>
</svg>
